<svg width="1440" height="576" viewBox="0 0 1440 576" fill="none" xmlns="http://www.w3.org/2000/svg">
<path opacity="0.1" d="M1.11906 43.8858L0.373047 575.492H1438.13L1439.63 0.258911C1439.63 0.258911 1404.49 16.5296 1402.94 59.4115C1402.19 80.1149 1417.92 78.6323 1417.92 78.6323C1417.92 78.6323 1387.97 54.2338 1360.26 78.6323C1340.73 95.8194 1359.51 117.082 1359.51 117.082C1359.51 117.082 1353.52 48.3185 1297.36 66.0643C1235.54 85.598 1263.66 140.005 1263.66 140.005C1263.66 140.005 1231.47 116.344 1203.76 137.785C1188.96 149.243 1184.29 173.276 1184.29 173.276C1184.29 173.276 1176.05 157.013 1144.6 148.878C1114.58 141.115 1090.68 143.7 1064.48 154.056C1042.81 162.616 1030.37 174.99 1022.9 187.863C1018.52 195.418 1016.05 202.95 1014.64 209.014C1012.86 216.725 1012.81 222.074 1012.81 222.074C1012.81 222.074 998.768 217.641 983.601 223.549C950.157 236.594 954.395 270.126 954.395 270.126C954.395 270.126 943.913 247.202 908.716 247.202C879.51 247.202 861.538 276.779 861.538 276.779L624.909 281.956C624.909 281.956 615.248 244.438 583.721 222.066C559.759 205.058 530.553 210.236 516.326 216.888C499.391 224.808 490.387 233.152 490.387 233.152C490.387 233.152 490.82 210.459 463.157 213.186C448.177 214.661 446.685 226.491 446.685 226.491C446.685 226.491 446.685 200.61 409.243 199.873C377.037 199.24 369.555 228.712 369.555 228.712C369.555 228.712 371.8 215.406 359.819 208.008C349.778 201.81 340.348 205.788 340.348 205.788C340.348 205.788 328.367 176.212 296.169 163.644C258.07 148.774 217.539 157.728 202.984 164.381C188.623 170.945 185.721 176.212 185.721 176.212C185.721 176.212 190.578 146.635 157.626 128.89C126.816 112.291 95.4753 131.11 95.4753 131.11C95.4753 131.11 98.4743 69.7446 15.3531 45.346C12.1377 44.4222 1.11906 43.8858 1.11906 43.8858Z" fill="#27243C"/>
</svg>
