<svg width="1440" height="551" viewBox="0 0 1440 551" fill="none" xmlns="http://www.w3.org/2000/svg">
<path opacity="0.53" d="M-7.25497 41.7853L-8 551H1439.51L1441 0C1441 0 1405.61 15.581 1404.05 56.6581C1403.3 76.4884 1419.1 75.072 1419.1 75.072C1419.1 75.072 1388.92 51.7005 1361.06 75.072C1341.39 91.5028 1360.31 111.9 1360.31 111.9C1360.31 111.9 1354.28 46.0347 1297.73 63.0321C1235.52 81.7293 1263.83 133.855 1263.83 133.855C1263.83 133.855 1231.42 111.192 1203.49 131.73C1188.59 142.708 1183.89 165.725 1183.89 165.725C1183.89 165.725 1175.62 150.144 1143.96 142.353C1113.71 134.917 1089.65 137.396 1063.27 147.311C1041.44 155.526 1028.93 167.354 1021.4 179.677C1017.01 186.901 1014.47 194.125 1013.06 199.932C1011.27 207.298 1011.19 212.468 1011.19 212.468C1011.19 212.468 997.039 208.218 981.766 213.884C948.091 226.349 952.338 258.503 952.338 258.503C952.338 258.503 941.758 236.548 906.37 236.548C876.941 236.548 858.837 264.877 858.837 264.877L620.578 269.834C620.578 269.834 610.818 233.927 579.08 212.468C554.941 196.179 525.587 201.136 511.208 207.51C494.147 215.088 485.132 223.091 485.132 223.091C485.132 223.091 485.579 201.349 457.715 203.969C442.666 205.386 441.101 216.717 441.101 216.717C441.101 216.717 441.101 191.929 403.403 191.221C370.994 190.584 363.47 218.842 363.47 218.842C363.47 218.842 365.705 206.094 353.635 199.012C343.503 193.062 334.041 196.887 334.041 196.887C334.041 196.887 321.972 168.558 289.563 156.518C251.194 142.283 210.367 150.852 195.764 157.226C181.311 163.529 178.405 168.558 178.405 168.558C178.405 168.558 183.323 140.229 150.094 123.231C119.101 107.367 87.5123 125.356 87.5123 125.356C87.5123 125.356 90.4924 66.5733 6.82601 43.2018C3.8459 42.3519 -7.25497 41.7853 -7.25497 41.7853Z" fill="#D0CFD4"/>
</svg>
