<svg width="1440" height="615" viewBox="0 0 1440 615" fill="none" xmlns="http://www.w3.org/2000/svg">
<path opacity="0.1" d="M0.484911 48.909L0 614.114H1438.5L1440 0.0447464C1440 0.0447464 1425.03 -1.22174 1410.18 10.2363C1388.71 26.8124 1398.33 42.5988 1398.33 42.5988C1398.33 42.5988 1390.93 15.7641 1360.57 28.3918C1325.18 43.1129 1347.25 81.2715 1347.25 81.2715C1347.25 81.2715 1330.22 65.4851 1311.71 79.6921C1296.68 91.2247 1302.8 116.793 1302.8 116.793C1302.8 116.793 1296.35 102.958 1273.95 94.6889C1261.72 90.1817 1245.96 86.7323 1230.27 94.6889C1221.25 99.2631 1211.02 108.106 1202.88 119.944C1189.88 138.845 1191.77 157.693 1191.77 157.693C1191.77 157.693 1171.78 145.2 1159.93 157.045C1148.03 168.935 1157.48 189.229 1157.48 189.229C1157.48 189.229 1145.02 176.132 1134.01 184.669C1117.73 197.297 1129.57 215.453 1129.57 215.453C1129.57 215.453 1127.35 188.618 1086.63 181.511C1063.63 177.495 1025.42 194.213 1014.78 222.888C1009.63 236.759 1013.34 264.384 1013.34 264.384C1013.34 264.384 984.459 256.494 965.212 269.122C942.354 284.119 941.519 307.005 941.519 307.005C941.519 307.005 928.904 279.991 894.132 285.691C865.253 290.429 854.891 318.053 854.891 318.053C854.891 318.053 838.464 309.672 831.936 323.581C823.79 340.947 853.63 359.162 856.368 368.571C864.791 397.544 847.483 418.3 847.483 418.3L591.308 387.517C591.308 387.517 606.117 335.65 604.632 303.116C603.677 282.13 579.074 271.811 560.953 277.235C553.552 279.455 550.591 281.668 550.591 281.668C550.591 281.668 544.667 268.362 530.597 270.016C507.635 272.713 504.681 295.957 504.681 295.957C504.681 295.957 499.496 266.246 469.14 264.667C445.432 263.43 433.6 285.698 433.6 285.698C433.6 285.698 419.53 249.141 381.774 249.387C355.089 249.558 339.572 279.381 339.572 279.381C339.572 279.381 336.961 267.58 328.464 264.384C315.879 259.646 299.108 271.528 299.108 271.528C299.108 271.528 315.983 258.983 308.471 235.97C302.547 217.814 284.777 215.445 284.777 215.445C284.777 215.445 299.586 181.503 269.969 164.927C233.735 144.648 191.488 187.813 191.488 187.813C191.488 187.813 195.188 180.706 189.265 175.186C183.237 169.561 175.023 177.003 175.023 177.003C175.023 177.003 174.456 152.299 146.324 134.144C118.908 116.458 87.0901 128.616 87.0901 128.616C87.0901 128.616 85.0012 114.223 75.9819 108.881C62.658 100.992 51.5498 106.512 51.5498 106.512C51.5498 106.512 61.1734 53.6322 14.9651 48.1714C11.6603 47.7989 0.484911 48.909 0.484911 48.909Z" fill="#27243C"/>
</svg>
