<svg width="1440" height="515" viewBox="0 0 1440 515" fill="none" xmlns="http://www.w3.org/2000/svg">
<path d="M-8 2.81913V517H1441V19.0624C1441 19.0624 1427.8 20.4101 1421.31 29.7021C1412.44 42.4697 1418.33 54.1025 1419.6 56.3013C1419.67 56.5141 1419.6 56.7269 1419.37 56.7979C1419.37 56.7979 1397.15 51.6908 1379.77 61.6212C1357.77 74.176 1354.04 87.8658 1354.04 87.8658C1354.04 87.8658 1339.87 48.0024 1301.09 58.7839C1267.83 68.005 1270.06 97.0868 1270.06 97.0868C1270.06 97.0868 1245.9 85.0285 1223.9 99.9241C1208.54 110.351 1211.07 136.099 1211.07 136.099C1211.07 136.099 1190.94 112.763 1161.18 122.622C1135.45 131.134 1130.9 144.611 1130.9 144.611C1130.9 144.611 1103.68 105.599 1065.87 114.82C1012.77 127.8 1016.72 186.46 1016.72 186.46C1016.72 186.46 1006.05 179.296 987.26 181.495C966.005 183.978 960.486 197.455 959.442 200.646C959.367 200.93 958.994 200.93 958.845 200.717C957.577 198.873 953.177 193.553 945.645 193.553C940.051 193.553 937.068 196.249 935.576 198.306C935.129 198.944 934.085 198.802 933.861 198.022C932.817 194.121 929.312 187.099 918.423 187.099C905.596 187.099 902.538 198.448 902.538 198.448C902.538 198.448 900.375 189.865 891.202 189.227C880.612 188.517 879.12 190.645 879.12 190.645C879.12 190.645 891.948 181.424 880.612 167.947C870.096 155.463 855.329 158.017 855.329 158.017C855.329 158.017 858.611 140.993 838.996 131.772C817.816 121.842 792.832 144.54 792.832 144.54C792.832 144.54 793.428 131.063 783.584 120.423C775.828 111.982 763.97 105.528 751.142 106.237C737.942 106.946 728.47 111.202 728.47 111.202C728.47 111.202 724.666 94.9589 705.798 93.4693C687.675 92.0507 681.634 105.528 681.634 105.528C681.634 105.528 677.085 100.562 668.807 103.4C660.901 106.095 660.528 114.039 660.528 114.039C660.528 114.039 650.684 111.911 644.643 118.295C642.182 120.92 641.585 124.466 641.436 127.091C641.361 128.226 640.019 128.722 639.124 128.013C633.978 123.615 620.927 114.891 603.102 119.714C586.546 124.254 582.369 137.943 579.535 144.185C579.013 145.391 577.223 145.391 576.701 144.185C574.315 138.724 567.379 130.354 546.944 130.354C510.624 130.354 509.132 163.691 509.132 163.691C509.132 163.691 496.305 159.435 489.444 165.11C477.213 175.324 485.64 188.517 485.64 188.517C485.64 188.517 479.002 176.033 465.951 177.168C457.598 177.878 448.574 188.517 448.574 188.517C448.574 188.517 447.083 165.819 418.295 162.982C377.202 158.939 371.385 187.808 371.385 187.808C371.385 187.808 363.852 179.296 354.753 182.133C346.997 184.545 344.163 190.645 344.163 190.645C344.163 190.645 343.119 171.99 321.491 152.342C271.598 106.946 214.097 131.772 214.097 131.772C214.097 131.772 209.548 120.423 195.974 122.551C180.238 125.034 178.597 133.9 178.597 133.9C178.597 133.9 183.892 109.784 154.434 98.4345C132.209 89.8519 112.818 106.237 112.818 106.237C112.818 106.237 115.205 98.7892 106.032 92.76C98.4991 87.7948 87.9089 95.5973 87.9089 95.5973C87.9089 95.5973 91.7124 75.0272 62.1791 60.841C41.1477 50.6978 22.8758 61.5503 22.8758 61.5503C22.8758 61.5503 42.5647 56.5851 38.0154 36.015C33.839 16.9345 10.8685 21.7578 10.8685 21.7578C10.8685 21.7578 18.2519 17.6438 13.1059 5.51456C8.63117 -5.0542 -8 2.81913 -8 2.81913Z" fill="white"/>
</svg>
