<svg width="1440" height="588" viewBox="0 0 1440 588" fill="none" xmlns="http://www.w3.org/2000/svg">
<path opacity="0.21" d="M-7.47848 46.8351L-8 588H1439.51L1441 0.0389493C1441 0.0389493 1425.95 -1.16459 1410.98 9.80879C1389.37 25.6671 1399.06 40.8175 1399.06 40.8175C1399.06 40.8175 1391.6 15.1185 1361.06 27.2246C1325.45 41.313 1347.65 77.8438 1347.65 77.8438C1347.65 77.8438 1330.51 62.6934 1311.89 76.3571C1296.76 87.4013 1302.95 111.897 1302.95 111.897C1302.95 111.897 1296.47 98.6578 1273.89 90.7287C1261.6 86.4101 1245.73 83.0827 1229.93 90.7287C1220.84 95.118 1210.56 103.543 1202.37 114.941C1189.26 133.065 1191.19 151.118 1191.19 151.118C1191.19 151.118 1171.08 139.153 1159.16 150.481C1147.16 161.879 1156.7 181.277 1156.7 181.277C1156.7 181.277 1144.18 168.746 1133.08 176.887C1116.69 188.994 1128.61 206.339 1128.61 206.339C1128.61 206.339 1126.38 180.64 1085.4 173.843C1062.23 170.02 1023.79 186.02 1013.06 213.489C1007.92 226.799 1011.64 253.206 1011.64 253.206C1011.64 253.206 982.586 245.63 963.215 257.737C940.194 272.108 939.374 293.984 939.374 293.984C939.374 293.984 926.709 268.144 891.693 273.595C862.637 278.126 852.206 304.603 852.206 304.603C852.206 304.603 835.667 296.604 829.111 309.913C820.915 326.55 850.94 343.966 853.696 352.957C862.19 380.709 844.756 400.603 844.756 400.603L586.977 371.152C586.977 371.152 601.878 321.453 600.388 290.303C599.419 270.197 574.684 260.356 556.431 265.524C548.981 267.648 546.001 269.772 546.001 269.772C546.001 269.772 540.041 257.029 525.885 258.586C502.789 261.206 499.809 283.436 499.809 283.436C499.809 283.436 494.594 254.975 464.048 253.489C440.207 252.285 428.287 273.595 428.287 273.595C428.287 273.595 414.131 238.622 376.135 238.834C349.314 238.976 333.669 267.577 333.669 267.577C333.669 267.577 331.061 256.25 322.493 253.206C309.828 248.675 292.99 260.073 292.99 260.073C292.99 260.073 309.977 248.037 302.378 226.02C296.417 208.604 278.537 206.339 278.537 206.339C278.537 206.339 293.437 173.843 263.636 157.985C227.205 138.587 184.664 179.932 184.664 179.932C184.664 179.932 188.389 173.135 182.429 167.826C176.394 162.445 168.124 169.595 168.124 169.595C168.124 169.595 167.528 145.95 139.217 128.534C111.651 111.614 79.615 123.224 79.615 123.224C79.615 123.224 77.5289 109.419 68.4396 104.322C55.0292 96.7463 43.8538 102.056 43.8538 102.056C43.8538 102.056 53.5391 51.4369 7.04952 46.198C3.7714 45.7732 -7.47848 46.8351 -7.47848 46.8351Z" fill="white"/>
</svg>
